<svg width="24" height="24" viewBox="0 0 24 24" fill="none" xmlns="http://www.w3.org/2000/svg">
<path d="M23.4736 5.64577C23.0186 5.08983 22.3109 4.75194 21.5785 4.75194H6.19066L5.71097 2.96427C5.43262 1.92508 4.47323 1.2002 3.36082 1.2002H0.783719C0.354361 1.2002 0 1.53809 0 1.94963C0 2.3602 0.353351 2.69906 0.783719 2.69906H3.36082C3.73985 2.69906 4.06854 2.94069 4.1692 3.30313L7.25167 15.0467C7.53003 16.0859 8.48941 16.8108 9.60182 16.8108H19.6833C20.7947 16.8108 21.7808 16.0859 22.0335 15.0467L23.9286 7.60436C24.1053 6.92666 23.9543 6.20178 23.4736 5.64584L23.4736 5.64577ZM22.3879 7.26448L20.4928 14.7069C20.3921 15.0693 20.0634 15.3109 19.6844 15.3109H9.60185C9.22282 15.3109 8.89413 15.0693 8.79347 14.7069L6.59533 6.27453H21.5796C21.8323 6.27453 22.085 6.39535 22.237 6.58884C22.388 6.78139 22.463 7.02302 22.388 7.26465L22.3879 7.26448Z" fill="white"/>
<path d="M10.1332 17.7751C8.69316 17.7751 7.50586 18.9106 7.50586 20.2876C7.50586 21.6646 8.69326 22.8 10.1332 22.8C11.5733 22.801 12.7606 21.6655 12.7606 20.2883C12.7606 18.9111 11.5732 17.7749 10.1332 17.7749V17.7751ZM10.1332 21.2788C9.55188 21.2788 9.09685 20.8436 9.09685 20.2877C9.09685 19.7318 9.55188 19.2966 10.1332 19.2966C10.7146 19.2966 11.1696 19.7318 11.1696 20.2877C11.1687 20.82 10.689 21.2788 10.1332 21.2788Z" fill="white"/>
<path d="M18.8251 17.7754C17.3851 17.7754 16.1978 18.9108 16.1978 20.2878C16.1978 21.6648 17.3852 22.8003 18.8251 22.8003C20.2651 22.8003 21.4525 21.6648 21.4525 20.2878C21.4279 18.9117 20.2651 17.7754 18.8251 17.7754ZM18.8251 21.279C18.2438 21.279 17.7887 20.8439 17.7887 20.2879C17.7887 19.732 18.2438 19.2969 18.8251 19.2969C19.4065 19.2969 19.8615 19.732 19.8615 20.2879C19.8615 20.8203 19.3809 21.279 18.8251 21.279Z" fill="white"/>
</svg>
